<svg width="64" height="56" viewBox="0 0 64 56" fill="none" xmlns="http://www.w3.org/2000/svg">
<path d="M16.3118 0C16.3118 0 10.6118 20.265 6.24182 33.803C7.63382 34.315 15.3418 40.221 18.0168 42.103C20.3348 43.731 28.7368 49.939 30.3248 51.79C41.6378 53.721 51.9838 55.345 51.9838 55.345C51.9838 55.345 63.7888 8.796 63.8988 7.685C64.0128 6.57 16.3148 0 16.3148 0" fill="#E8D807"/>
<path d="M14.7308 0C14.7308 0 2.29583 44.21 0.0688259 45.656C-2.15817 47.102 50.3988 55.344 50.3988 55.344C50.3988 55.344 63.2278 8.527 63.3388 7.414C63.4508 6.3 14.7298 0 14.7298 0" fill="#FFF200"/>
<path d="M35.1698 8.08181C35.4018 8.32081 35.6188 8.49381 35.7568 8.35381C35.8938 8.20981 35.7298 7.99381 35.4938 7.75681L31.0148 2.63681C30.7818 2.39981 30.2968 2.49681 30.1578 2.63681C30.0198 2.77781 29.9178 3.26681 30.1578 3.50681L35.1678 8.08181" fill="#AEAEAE"/>
<path d="M35.3598 7.91282L30.8838 2.79682C30.6818 2.58682 30.2858 2.63682 30.0948 2.74282C30.1126 2.70513 30.1366 2.67066 30.1658 2.64082C30.3008 2.49882 30.7858 2.39982 31.0198 2.64082L35.4988 7.75882C35.7338 7.99782 35.8978 8.21482 35.7618 8.35582C35.7385 8.38064 35.7075 8.39685 35.6738 8.40182C35.6818 8.26882 35.5418 8.09782 35.3598 7.91282" fill="#7C7B7D"/>
<path d="M27.7658 4.27898C28.3858 5.52198 30.0548 5.83398 31.4868 4.98098C32.9188 4.12398 33.5758 2.42498 32.9558 1.18498C32.3338 -0.0550234 30.6668 -0.365024 29.2328 0.485976C27.8028 1.33998 27.1458 3.04298 27.7658 4.27898" fill="#BE1E2D"/>
<path d="M32.1598 2.49992C31.5418 1.25992 29.8728 0.94692 28.4408 1.80292C28.1408 1.97992 27.8768 2.19692 27.6498 2.43592C27.8868 1.67592 28.4368 0.953919 29.2228 0.481919C30.6548 -0.372081 32.3218 -0.0590807 32.9448 1.18092C33.4358 2.16292 33.1238 3.43092 32.2638 4.33992C32.4598 3.71092 32.4408 3.06192 32.1598 2.49992Z" fill="#AA1B2D"/>
<path d="M30.3838 4.88682C30.3838 4.88682 28.8058 5.29282 27.9528 3.83182C27.9528 3.83182 27.7238 3.30782 28.0258 3.46382C28.0258 3.46282 28.5438 4.56682 30.3838 4.88682Z" fill="#F4F5F5"/>
<path d="M17.4738 16.1459C17.6318 15.4629 18.5768 13.3759 19.5718 13.8169C20.0718 14.0419 19.8778 15.0159 19.9088 15.4479C19.9378 15.8939 20.0878 16.2579 20.3838 16.5829C21.8568 18.1889 24.1588 15.1689 24.9708 14.2459C24.7288 14.2169 24.4918 14.1839 24.2548 14.1539C24.5668 14.5999 24.7008 15.1949 25.1248 15.5499C25.6408 15.9769 26.2698 15.6109 26.7188 15.2819L26.0928 15.1149C26.3318 15.6569 26.6258 16.1539 27.2728 16.1779C27.4848 16.1889 27.7138 16.0889 27.9098 16.0259C28.3638 15.8849 28.8218 15.9699 29.2628 16.0909C29.9418 16.2759 30.6258 16.1839 31.1188 15.6759C31.4608 15.3219 31.5998 15.6279 31.9688 15.7609C32.5228 15.9629 32.9888 15.4969 33.6088 15.8049C34.1308 16.0669 34.5908 15.2809 34.0708 15.0159C33.7208 14.8429 33.4378 14.7519 33.0508 14.7349C32.6758 14.7199 32.2888 14.9969 31.9938 14.6789C31.6478 14.3019 31.0778 14.3959 30.7448 14.7409C30.3498 15.1469 30.1168 15.3459 29.5088 15.2089C29.1668 15.1339 28.8548 15.0589 28.4988 15.0419C28.219 15.03 27.9391 15.0651 27.6708 15.1459C27.1498 15.2829 27.1048 15.1629 26.8758 14.6519C26.7838 14.4419 26.4388 14.3549 26.2508 14.4899C25.8678 14.7749 25.7308 14.9789 25.4978 14.5249C25.3478 14.2379 25.2268 13.9549 25.0398 13.6929C24.8818 13.4659 24.5318 13.3599 24.3238 13.5969C23.5788 14.4479 22.8668 15.4029 21.8558 15.9399C20.4818 16.6699 20.9418 14.0749 20.4908 13.4259C19.0678 11.3989 16.8898 14.6389 16.5928 15.8989C16.4598 16.4749 17.3338 16.7179 17.4718 16.1459" fill="#BE1E2D"/>
<path d="M35.3598 16.1538C35.4388 16.1938 35.5088 16.2408 35.5888 16.2808C35.7239 16.352 35.8741 16.3897 36.0268 16.3908C36.2718 16.4018 36.4818 16.1788 36.4818 15.9348C36.48 15.8148 36.4315 15.7002 36.3465 15.6154C36.2615 15.5306 36.1468 15.4823 36.0268 15.4808C35.9188 15.4768 36.1288 15.5058 36.0348 15.4828C36.0178 15.4768 36.0018 15.4748 35.9888 15.4678C36.0548 15.4988 36.0678 15.5008 36.0268 15.4808C35.9558 15.4468 35.8928 15.4038 35.8178 15.3678C35.5948 15.2538 35.3228 15.3078 35.1918 15.5308C35.0768 15.7358 35.1398 16.0398 35.3598 16.1538Z" fill="#BE1E2D"/>
<path d="M38.4399 16.7319C39.8419 16.9439 40.7919 16.0679 41.4949 14.9459H40.7089C41.2039 15.5999 41.1709 16.8419 42.2729 16.7589C42.7269 16.7279 43.0949 16.3839 43.3969 16.0699C43.7089 15.7369 44.2009 14.7839 44.5799 15.4939C44.7549 15.8159 44.9499 16.2849 45.3579 16.3799C46.1439 16.5689 46.6459 16.1239 47.4019 16.0489C49.3079 15.8529 51.1849 16.1149 53.0899 16.1359C53.6829 16.1399 53.6829 15.2289 53.0899 15.2249C51.4929 15.2079 49.9069 14.9979 48.3049 15.0519C47.6109 15.0749 46.9609 15.1639 46.3249 15.4249C45.5089 15.7559 45.4259 14.9519 44.9969 14.5299C44.4059 13.9429 43.6779 14.3819 43.2319 14.8689C43.0939 15.0159 42.3119 16.1189 42.0619 15.7409C41.8099 15.3539 41.7789 14.8589 41.4959 14.4879C41.2919 14.2169 40.9089 14.1739 40.7099 14.4879C40.2599 15.1989 39.6339 15.9969 38.6869 15.8529C38.1109 15.7659 37.8609 16.6419 38.4399 16.7319" fill="#BE1E2D"/>
<path d="M14.5558 21.6868C15.2388 20.9358 16.5868 19.3118 17.7688 19.8488C18.9028 20.3648 18.8138 22.1128 19.4458 23.0288C19.9908 23.8198 21.1188 23.7778 21.8348 23.2578C22.7468 22.5918 23.1418 21.3788 23.7288 20.4538C23.45 20.4191 23.1713 20.3831 22.8928 20.3458C23.0598 20.9388 23.4088 21.2348 23.8918 21.5798C24.3708 21.9278 24.8238 21.1368 24.3538 20.7948C24.0708 20.5908 23.8748 20.4708 23.7748 20.1068C23.6668 19.7108 23.1498 19.6688 22.9408 19.9938C22.3848 20.8718 21.8938 22.6148 20.6948 22.7288C20.0868 22.7878 19.9288 21.9778 19.7998 21.5408C19.6378 20.9978 19.4498 20.4968 19.1628 20.0028C17.7308 17.5228 15.1878 19.6408 13.9098 21.0418C13.5158 21.4718 14.1558 22.1218 14.5558 21.6868" fill="#BE1E2D"/>
<path d="M25.4908 21.8019C25.9238 21.9119 26.2278 21.7639 26.6358 21.6309C27.0938 21.4809 27.7968 21.9969 28.1798 22.1929C28.7038 22.4569 29.1658 21.6709 28.6378 21.4039C28.1668 21.1619 27.7048 20.8819 27.1848 20.7689C26.9639 20.7184 26.7358 20.7069 26.5108 20.7349C26.2568 20.7729 25.9868 20.9849 25.7328 20.9179C25.1598 20.7719 24.9198 21.6519 25.4908 21.8019Z" fill="#BE1E2D"/>
<path d="M30.7188 22.1519C31.4478 21.9959 32.2388 22.4659 32.9458 22.6059C33.6708 22.7499 34.3158 22.5309 34.7738 21.9479C35.1308 21.4919 34.4908 20.8409 34.1278 21.3019C33.6158 21.9559 32.9728 21.6989 32.2918 21.4829C31.6878 21.2899 31.1078 21.1379 30.4808 21.2709C29.9028 21.3969 30.1478 22.2709 30.7188 22.1519Z" fill="#BE1E2D"/>
<path d="M40.3198 23.9319C40.5718 22.7579 40.6698 21.5559 41.1038 20.4299C40.8278 20.4679 40.5528 20.5029 40.2738 20.5399C41.0898 21.7759 42.0968 22.5799 43.6408 22.4299C44.2198 22.3719 44.2278 21.4599 43.6408 21.5179C42.4218 21.6369 41.7138 21.0639 41.0608 20.0779C40.8318 19.7329 40.3728 19.8199 40.2278 20.1859C39.7908 21.3139 39.6958 22.5189 39.4418 23.6859C39.3168 24.2609 40.1908 24.5069 40.3198 23.9319Z" fill="#BE1E2D"/>
<path d="M45.9999 22.9619C47.5799 23.0159 49.0519 22.4959 50.6209 22.8869C51.9479 23.2109 53.0559 23.5529 54.3669 22.9869C54.9029 22.7539 54.4459 21.9689 53.9129 22.1999C52.5349 22.7909 51.2529 21.9419 49.8829 21.8129C48.5759 21.6939 47.3109 22.0959 45.9989 22.0499C45.4119 22.0289 45.4169 22.9389 45.9989 22.9619" fill="#BE1E2D"/>
<path d="M16.7688 29.1349C15.9428 29.1769 14.2478 29.0929 14.4528 27.8439C14.6108 26.8859 15.6268 26.3849 16.5068 26.4019C17.4368 26.4169 19.3598 27.3929 18.7778 28.5649C18.6358 28.8479 18.2658 29.1579 17.9288 29.1079C17.3958 29.0309 17.5378 28.0979 17.5788 27.7529C17.4248 27.9029 17.2708 28.0569 17.1208 28.2089C18.3238 28.3109 19.1018 29.3679 20.4098 29.1439C20.9718 29.0439 21.5048 28.7819 22.0748 28.7269C21.9088 28.4649 21.8668 28.4319 21.9458 28.6289C21.9788 28.7289 22.0098 28.8289 22.0498 28.9239C22.1168 29.0869 22.1998 29.2839 22.3378 29.4049C23.0118 30.0249 23.9528 29.5649 24.7268 29.3759C25.0638 29.2889 25.5508 29.8029 25.9298 29.8549C26.4208 29.9219 26.7608 29.5009 27.2208 29.4179C27.7998 29.3139 27.5538 28.4349 26.9788 28.5389C26.5208 28.6179 26.1588 29.0889 25.7218 28.8139C25.3928 28.6099 25.1808 28.4099 24.7768 28.4479C24.3188 28.4879 23.8698 28.6639 23.4278 28.7729C22.8968 28.9019 22.9158 28.5959 22.7538 28.1859C22.4458 27.4119 21.1888 28.0029 20.6558 28.1609C19.3158 28.5599 18.3958 27.4079 17.1218 27.2949C16.8548 27.2739 16.6978 27.5239 16.6678 27.7529C16.5718 28.5269 16.6348 29.4699 17.3998 29.8839C17.9908 30.2039 18.6698 29.9279 19.1438 29.5429C20.8548 28.1709 18.9688 26.2769 17.5998 25.7149C16.0558 25.0829 14.2078 25.8069 13.6288 27.3909C12.9048 29.4009 15.2688 30.1209 16.7698 30.0459C17.3568 30.0179 17.3568 29.1059 16.7688 29.1349" fill="#BE1E2D"/>
<path d="M32.9628 28.4359C32.2238 28.4819 31.5888 28.7669 31.4008 29.5369C31.2428 30.1789 31.6468 30.8759 32.1838 31.1959C33.6068 32.0359 35.6878 31.4369 37.2498 31.6239C37.8368 31.6909 37.8278 30.7799 37.2498 30.7089C36.2968 30.5969 35.3138 30.6919 34.3528 30.6759C33.8408 30.6629 33.3298 30.6259 32.8328 30.4849C32.0718 30.2729 32.1588 29.3979 32.9628 29.3459C33.5488 29.3099 33.5488 28.3989 32.9628 28.4359" fill="#BE1E2D"/>
<path d="M38.5988 30.642C39.9138 30.392 41.0998 31.7129 42.3198 32.0899C43.8558 32.5669 45.5118 32.0529 47.0518 31.8819C47.6308 31.8209 47.6388 30.91 47.0518 30.975C45.2798 31.166 43.5018 31.7219 41.7948 30.9239C40.5668 30.3499 39.8118 29.4849 38.3528 29.7639C37.7818 29.8739 38.0228 30.753 38.5988 30.642Z" fill="#BE1E2D"/>
<path d="M51.2199 32.657C51.4529 32.736 51.6819 32.838 51.9239 32.919C52.1529 32.998 52.4169 32.827 52.4819 32.603C52.5479 32.351 52.3939 32.121 52.1619 32.04C51.9249 31.959 51.6989 31.859 51.4579 31.779C51.2229 31.696 50.9629 31.869 50.8999 32.095C50.8289 32.346 50.9819 32.578 51.2199 32.657" fill="#BE1E2D"/>
<path d="M36.0999 39.7119C36.8029 38.5119 36.4039 35.8829 34.5679 36.0679C33.6439 36.1619 32.7319 37.0779 32.6859 38.0019C32.6319 39.0989 34.0099 39.6909 34.8749 39.8789C35.4499 40.0039 35.6869 39.1209 35.1119 38.9959C34.6299 38.8939 33.6429 38.6319 33.5969 38.0019C33.5599 37.5519 34.3259 36.8979 34.7789 36.9739C35.6989 37.1159 35.6579 38.6699 35.3119 39.2549C35.0119 39.7589 35.8009 40.2169 36.0999 39.7119Z" fill="#BE1E2D"/>
<path d="M40.4418 36.8919C39.3678 36.7359 38.0448 36.8239 37.4528 37.8869C36.8838 38.9209 37.7158 40.1119 38.5308 40.7149C39.4058 41.3639 40.4958 41.4159 41.1748 40.4899C41.8518 39.5609 41.4038 38.2749 40.7588 37.4799C40.3888 37.0259 39.7468 37.6749 40.1128 38.1259C40.5168 38.6269 40.7588 39.3349 40.4418 39.9399C40.1048 40.5859 39.3678 40.2379 38.9518 39.8899C38.5138 39.5239 37.9618 38.8579 38.2948 38.2579C38.6268 37.6539 39.6308 37.6859 40.2008 37.7669C40.7708 37.8509 41.0208 36.9729 40.4418 36.8919" fill="#BE1E2D"/>
<path d="M32.7058 40.6278C33.4328 43.8328 38.4898 46.5448 40.4588 42.9108C40.7378 42.3918 39.9548 41.9318 39.6718 42.4488C38.0908 45.3688 34.1298 42.8038 33.5868 40.3868C33.4528 39.8138 32.5748 40.0548 32.7058 40.6278Z" fill="#BE1E2D"/>
<path d="M33.1199 34.7519V35.4529C33.1199 35.7009 33.3279 35.9089 33.5779 35.9089C33.6986 35.9076 33.814 35.8592 33.8996 35.774C33.9852 35.6888 34.0341 35.5736 34.0359 35.4529V34.7519C34.0338 34.6313 33.9848 34.5162 33.8993 34.431C33.8138 34.3459 33.6985 34.2974 33.5779 34.2959C33.3279 34.2959 33.1199 34.5059 33.1199 34.7519Z" fill="#BE1E2D"/>
<path d="M34.6939 34.8419C34.6889 34.9669 34.7179 34.7509 34.6889 34.8709C34.6817 34.9093 34.6706 34.9468 34.6559 34.9829C34.6889 34.8869 34.6389 35.0119 34.6389 35.0249C34.6179 35.0619 34.6019 35.0999 34.5809 35.1349C34.4679 35.3599 34.5189 35.6279 34.7429 35.7609C34.9469 35.8799 35.2549 35.8199 35.3669 35.5969C35.4879 35.3539 35.5939 35.1169 35.6039 34.8409C35.6129 34.5919 35.3919 34.3879 35.1479 34.3879C35.0279 34.3892 34.9131 34.4375 34.8283 34.5224C34.7434 34.6072 34.6952 34.7219 34.6939 34.8419" fill="#BE1E2D"/>
<path d="M37.1099 35.1499C37.0889 35.1579 37.0719 35.1669 37.0479 35.1789C37.0605 35.1739 37.0728 35.1682 37.0849 35.1619C37.0209 35.1859 36.9559 35.2119 36.8939 35.2409C36.8106 35.2786 36.7345 35.3303 36.6688 35.3939C36.6262 35.4359 36.5923 35.4861 36.5691 35.5413C36.546 35.5966 36.5341 35.656 36.5341 35.7159C36.5341 35.7758 36.546 35.8351 36.5691 35.8904C36.5923 35.9457 36.6262 35.9958 36.6688 36.0379C36.7109 36.08 36.7609 36.1134 36.8159 36.1362C36.8709 36.159 36.9298 36.1707 36.9893 36.1707C37.0489 36.1707 37.1078 36.159 37.1628 36.1362C37.2178 36.1134 37.2678 36.08 37.3099 36.0379C37.3689 35.9859 37.2059 36.1039 37.2979 36.0529C37.3939 35.9979 37.2099 36.0859 37.2849 36.0569C37.3821 36.0204 37.4778 35.98 37.5718 35.9359C37.7928 35.8289 37.8499 35.5139 37.7339 35.3099C37.6019 35.0879 37.3349 35.0419 37.1099 35.1499" fill="#BE1E2D"/>
<path d="M38.7849 35.9519C38.8339 36.0549 38.7519 35.8619 38.7849 35.9539C38.7979 35.9829 38.8029 36.0129 38.8139 36.0419C38.8309 36.1209 38.8019 35.9039 38.8059 36.0109V36.0749C38.8077 36.1953 38.8567 36.3103 38.9423 36.395C39.028 36.4797 39.1434 36.5274 39.2639 36.5279C39.3837 36.5269 39.4983 36.4788 39.583 36.3941C39.6678 36.3093 39.7158 36.1947 39.7169 36.0749C39.7133 35.872 39.6634 35.6726 39.5709 35.4919C39.4589 35.2689 39.1459 35.2089 38.9419 35.3299C38.7189 35.4629 38.6729 35.7289 38.7849 35.9519" fill="#BE1E2D"/>
<path d="M40.4299 35.9218C40.3449 35.9968 40.5089 35.8698 40.4299 35.9198C40.3799 35.9508 40.3339 35.9888 40.2839 36.0258C40.1679 36.1218 40.1349 36.2798 40.1219 36.4218C40.0969 36.6668 40.3429 36.8748 40.5749 36.8748C40.8419 36.8748 41.0089 36.6668 41.0329 36.4218C41.0324 36.4809 41.0174 36.5391 40.9892 36.591C40.9609 36.643 40.9203 36.6872 40.8709 36.7198C40.8839 36.7088 40.8999 36.7028 40.9119 36.6928C40.9708 36.6575 41.0255 36.6155 41.0749 36.5678C41.2579 36.3988 41.2409 36.0928 41.0749 35.9218C40.9882 35.8383 40.8726 35.7917 40.7524 35.7917C40.6321 35.7917 40.5165 35.8383 40.4299 35.9218" fill="#BE1E2D"/>
<path d="M42.6149 36.2688C42.6689 36.2318 42.6739 36.2278 42.6389 36.2568C42.6129 36.2688 42.5889 36.2788 42.5689 36.2938C42.4912 36.3328 42.4198 36.383 42.3569 36.4428C42.1729 36.6118 42.1859 36.9178 42.3569 37.0888C42.5359 37.2728 42.8139 37.2578 43.0019 37.0888C42.9479 37.1258 42.9399 37.1328 42.9779 37.1058C43.0006 37.09 43.0255 37.0775 43.0519 37.0688C43.1269 37.0268 43.1979 36.9728 43.2649 36.9148C43.4439 36.7488 43.4309 36.4398 43.2649 36.2688C43.0809 36.0898 42.8029 36.1028 42.6149 36.2688Z" fill="#BE1E2D"/>
</svg>
